<svg xmlns="http://www.w3.org/2000/svg" width="245" height="110" viewBox="0 0 245 110" fill="none"><path d="M91.9492 20.9311C91.9492 9.37119 101.32 0 112.88 0H159.376C159.376 11.56 150.005 20.9311 138.445 20.9311H91.9492Z" fill="#403D3D"></path><path d="M91.9492 44.064C91.9492 32.504 101.32 23.1328 112.88 23.1328H159.376C159.376 34.6928 150.005 44.064 138.445 44.064H91.9492Z" fill="#403D3D"></path><path d="M89.624 67.1968C89.624 55.6368 98.9952 46.2656 110.555 46.2656H157.051C157.051 57.8256 147.68 67.1968 136.12 67.1968H89.624Z" fill="#403D3D"></path><path d="M17.0147 90.8786H10.3628V109.085H7.59593V90.8786H0.929688V88.5419H17.0147V90.8786Z" fill="#403D3D"></path><path d="M36.7072 88.5419V109.085H33.926V99.7383H22.8443V109.085H20.0631V88.5419H22.8443V97.7026H33.926V88.5419H36.7072Z" fill="#403D3D"></path><path d="M54.6321 106.82L54.6178 109.085H41.9591V88.5419H54.6178V90.807H44.7403V97.6309H52.7398V99.81H44.7403V106.82H54.6321Z" fill="#403D3D"></path><path d="M78.5161 106.82L78.5018 109.085H65.8431V88.5419H78.5018V90.807H68.6243V97.6309H76.6238V99.81H68.6243V106.82H78.5161Z" fill="#403D3D"></path><path d="M94.0463 106.749V109.085H82.3911V88.5419H85.1579V106.749H94.0463Z" fill="#403D3D"></path><path d="M99.9003 109.085H97.1191V88.5419H99.9003V109.085Z" fill="#403D3D"></path><path d="M120.824 109.085H118.072C117.862 109.085 117.694 109.033 117.57 108.928C117.455 108.813 117.36 108.689 117.283 108.555L111.778 99.9247C111.702 100.154 111.616 100.35 111.52 100.512L106.159 108.555C106.063 108.689 105.958 108.813 105.843 108.928C105.738 109.033 105.59 109.085 105.399 109.085H102.818L109.886 98.5341L103.105 88.5419H105.872C106.073 88.5419 106.221 88.5753 106.316 88.6422C106.412 88.7091 106.498 88.8047 106.574 88.9289L111.936 97.1578C112.003 96.9571 112.103 96.7373 112.237 96.4984L117.298 88.9863C117.374 88.8525 117.465 88.7474 117.57 88.6709C117.675 88.5849 117.799 88.5419 117.943 88.5419H120.595L113.785 98.405L120.824 109.085Z" fill="#403D3D"></path><path d="M126.556 109.085H123.775V88.5419H126.556V109.085Z" fill="#403D3D"></path><path d="M137.503 98.4911C138.305 98.4911 139.013 98.3955 139.624 98.2043C140.245 98.0036 140.762 97.7265 141.173 97.3729C141.593 97.0097 141.908 96.5796 142.119 96.0826C142.329 95.5856 142.434 95.0361 142.434 94.434C142.434 93.2106 142.033 92.2884 141.23 91.6671C140.427 91.0459 139.223 90.7353 137.617 90.7353H134.578V98.4911H137.503ZM146.993 109.085H144.527C144.021 109.085 143.648 108.889 143.409 108.498L138.076 101.158C137.913 100.928 137.737 100.766 137.546 100.67C137.364 100.565 137.077 100.512 136.685 100.512H134.578V109.085H131.811V88.5419H137.617C138.917 88.5419 140.04 88.6757 140.986 88.9433C141.932 89.2013 142.711 89.5788 143.323 90.0758C143.944 90.5728 144.403 91.1749 144.699 91.8822C144.995 92.5798 145.144 93.3636 145.144 94.2333C145.144 94.9596 145.029 95.6382 144.8 96.269C144.57 96.8998 144.236 97.4684 143.796 97.975C143.366 98.4719 142.835 98.8972 142.205 99.2509C141.583 99.6045 140.876 99.8721 140.083 100.054C140.437 100.254 140.742 100.546 141 100.928L146.993 109.085Z" fill="#403D3D"></path><path d="M171.545 104.842C171.698 104.842 171.832 104.904 171.947 105.028L173.05 106.218C172.209 107.193 171.187 107.953 169.982 108.498C168.788 109.042 167.34 109.315 165.639 109.315C164.167 109.315 162.829 109.061 161.625 108.555C160.42 108.039 159.393 107.322 158.542 106.405C157.692 105.477 157.032 104.369 156.564 103.079C156.096 101.788 155.862 100.369 155.862 98.8208C155.862 97.2725 156.105 95.8532 156.593 94.563C157.08 93.2728 157.763 92.1641 158.643 91.237C159.532 90.31 160.592 89.5932 161.825 89.0866C163.058 88.5705 164.42 88.3125 165.911 88.3125C167.373 88.3125 168.664 88.5467 169.782 89.015C170.9 89.4833 171.884 90.1188 172.735 90.9217L171.817 92.1976C171.76 92.2931 171.684 92.3744 171.588 92.4413C171.502 92.4986 171.383 92.5273 171.23 92.5273C171.058 92.5273 170.847 92.4365 170.599 92.2549C170.35 92.0638 170.025 91.8535 169.624 91.6241C169.223 91.3947 168.721 91.1893 168.119 91.0077C167.517 90.8165 166.776 90.7209 165.897 90.7209C164.836 90.7209 163.866 90.9073 162.987 91.2801C162.107 91.6432 161.347 92.1737 160.707 92.8713C160.076 93.569 159.584 94.4196 159.23 95.4232C158.877 96.4267 158.7 97.5592 158.7 98.8208C158.7 100.101 158.882 101.244 159.245 102.247C159.618 103.251 160.119 104.101 160.75 104.799C161.39 105.487 162.141 106.013 163.001 106.376C163.871 106.739 164.807 106.921 165.811 106.921C166.422 106.921 166.972 106.887 167.459 106.82C167.956 106.744 168.41 106.629 168.821 106.476C169.242 106.323 169.629 106.132 169.982 105.903C170.346 105.664 170.704 105.382 171.058 105.057C171.22 104.914 171.383 104.842 171.545 104.842Z" fill="#403D3D"></path><path d="M187.93 106.749V109.085H176.275V88.5419H179.042V106.749H187.93Z" fill="#403D3D"></path><path d="M193.784 109.085H191.003V88.5419H193.784V109.085Z" fill="#403D3D"></path><path d="M215.683 88.5419V109.085H214.293C214.073 109.085 213.886 109.047 213.734 108.971C213.59 108.894 213.447 108.765 213.303 108.584L201.419 93.1007C201.438 93.3397 201.452 93.5738 201.462 93.8032C201.471 94.0326 201.476 94.2476 201.476 94.4483V109.085H199.039V88.5419H200.473C200.597 88.5419 200.702 88.5514 200.788 88.5705C200.874 88.5801 200.951 88.604 201.017 88.6422C201.084 88.6709 201.151 88.7187 201.218 88.7856C201.285 88.8429 201.357 88.9194 201.433 89.015L213.318 104.484C213.299 104.235 213.28 103.996 213.26 103.767C213.251 103.528 213.246 103.303 213.246 103.093V88.5419H215.683Z" fill="#403D3D"></path><path d="M223.716 109.085H220.935V88.5419H223.716V109.085Z" fill="#403D3D"></path><path d="M243.393 104.842C243.546 104.842 243.68 104.904 243.795 105.028L244.898 106.218C244.057 107.193 243.035 107.953 241.83 108.498C240.636 109.042 239.188 109.315 237.487 109.315C236.015 109.315 234.677 109.061 233.473 108.555C232.268 108.039 231.241 107.322 230.39 106.405C229.54 105.477 228.88 104.369 228.412 103.079C227.944 101.788 227.71 100.369 227.71 98.8208C227.71 97.2725 227.953 95.8532 228.441 94.563C228.928 93.2728 229.611 92.1641 230.491 91.237C231.38 90.31 232.44 89.5932 233.673 89.0866C234.906 88.5705 236.268 88.3125 237.759 88.3125C239.221 88.3125 240.512 88.5467 241.63 89.015C242.748 89.4833 243.732 90.1188 244.583 90.9217L243.665 92.1976C243.608 92.2931 243.532 92.3744 243.436 92.4413C243.35 92.4986 243.231 92.5273 243.078 92.5273C242.906 92.5273 242.695 92.4365 242.447 92.2549C242.198 92.0638 241.873 91.8535 241.472 91.6241C241.071 91.3947 240.569 91.1893 239.967 91.0077C239.365 90.8165 238.624 90.7209 237.745 90.7209C236.684 90.7209 235.714 90.9073 234.835 91.2801C233.955 91.6432 233.195 92.1737 232.555 92.8713C231.924 93.569 231.432 94.4196 231.078 95.4232C230.725 96.4267 230.548 97.5592 230.548 98.8208C230.548 100.101 230.73 101.244 231.093 102.247C231.466 103.251 231.967 104.101 232.598 104.799C233.238 105.487 233.989 106.013 234.849 106.376C235.719 106.739 236.655 106.921 237.659 106.921C238.27 106.921 238.82 106.887 239.307 106.82C239.804 106.744 240.258 106.629 240.669 106.476C241.09 106.323 241.477 106.132 241.83 105.903C242.194 105.664 242.552 105.382 242.906 105.057C243.068 104.914 243.231 104.842 243.393 104.842Z" fill="#403D3D"></path></svg>